<?xml version="1.0" encoding="UTF-8"?>
<svg version="1.1" xmlns="http://www.w3.org/2000/svg" viewBox="200 100 350 220" width="700" height="440" >
<path d="M0 0 C0.99 0.598125 1.98 1.19625 3 1.8125 C3.59039062 2.1528125 4.18078125 2.493125 4.7890625 2.84375 C10.04171127 6.15180114 13.67222221 10.76193737 15.6171875 16.6953125 C16.93279023 23.97140104 16.83489461 31.37977356 13 37.8125 C8.58411537 44.16646732 3.48544468 48.55333241 -4 50.8125 C-12.00240588 51.91125075 -19.1348901 51.2453173 -26 46.8125 C-28.8125 44.375 -28.8125 44.375 -31 41.8125 C-31.721875 41.008125 -32.44375 40.20375 -33.1875 39.375 C-37.77781609 32.88524277 -37.86445859 25.47556518 -37 17.8125 C-34.45639493 9.51171739 -29.54624626 4.51062632 -22.2421875 0.17578125 C-15.79742273 -2.53412587 -6.57720881 -2.62189417 0 0 Z " fill="#E96E9B" transform="translate(369,221.1875)"/>
<path d="M0 0 C5.9898355 3.64316835 10.63089305 7.87079068 13.18359375 14.5078125 C15.1372429 22.65416083 14.53695441 30.63312243 10.8046875 38.09765625 C6.98677773 44.17803106 0.51952432 47.85937731 -6.1953125 50.09765625 C-15.31808508 51.11392366 -22.80737308 50.2323374 -30.16015625 44.58984375 C-35.488693 39.74571943 -38.64492221 34.34757713 -39.57421875 27.171875 C-39.90023579 18.89524879 -37.82420041 13.22876582 -33.4453125 6.34765625 C-24.80063715 -2.2970191 -11.38973309 -5.25491977 0 0 Z " fill="#E96E9C" transform="translate(327.1953125,162.90234375)"/>
<path d="M0 0 C1.067948 0.00241699 1.067948 0.00241699 2.1574707 0.00488281 C7.76227428 0.13583917 11.69879225 1.06272202 16.1875 4.375 C17.095 4.99375 18.0025 5.6125 18.9375 6.25 C21.58178339 8.74737875 23.40468912 11.20555843 25.1875 14.375 C25.1875 15.695 25.1875 17.015 25.1875 18.375 C22.7696288 18.48326289 20.35662444 18.56239789 17.9375 18.625 C16.91462891 18.67527344 16.91462891 18.67527344 15.87109375 18.7265625 C12.34571773 18.7950164 10.58808069 18.70660653 7.828125 16.421875 C7.28671875 15.74640625 6.7453125 15.0709375 6.1875 14.375 C2.72222176 12.64236088 -1.02357028 12.9030226 -4.8125 13.375 C-7.87255926 15.13290639 -9.32352851 16.56004751 -11.125 19.5625 C-12.48741289 25.13600726 -12.6994164 29.63284278 -10.0625 34.8125 C-6.61761628 38.73583979 -5.12031468 39.27120518 0.125 39.6875 C3.88112193 39.58957503 6.1934703 38.75261182 9.1875 36.375 C9.8475 35.385 10.5075 34.395 11.1875 33.375 C6.5675 33.375 1.9475 33.375 -2.8125 33.375 C-2.8125 29.745 -2.8125 26.115 -2.8125 22.375 C7.0875 22.375 16.9875 22.375 27.1875 22.375 C27.1875 32.8256889 25.4418036 39.02001361 18.2890625 46.64453125 C12.00342534 51.82025107 4.06963189 53.12989813 -3.88671875 52.8203125 C-11.24962658 51.6996563 -17.16769804 48.10391479 -21.62890625 42.1640625 C-26.64890256 34.57608127 -26.65328526 27.36944702 -25.8125 18.375 C-24.12846266 11.27958932 -18.56330129 6.50626703 -12.8125 2.375 C-8.64571584 0.19239877 -4.62321079 -0.01080568 0 0 Z " fill="#E96E9B" transform="translate(424.8125,160.625)"/>
<path d="M0 0 C13 0 13 0 15.83691406 2.27905273 C16.39088867 3.32005127 16.94486328 4.3610498 17.515625 5.43359375 C18.46115234 7.1187207 18.46115234 7.1187207 19.42578125 8.83789062 C20.03513283 10.03711156 20.64319158 11.23699022 21.25 12.4375 C21.90035207 13.63596892 22.55526769 14.83197327 23.21484375 16.02539062 C24.40468379 18.20177519 25.57392183 20.38963608 26.71582031 22.59155273 C27.78923155 24.88631898 27.78923155 24.88631898 29 26 C29.33 17.42 29.66 8.84 30 0 C34.29 0 38.58 0 43 0 C43 16.5 43 33 43 50 C31 50 31 50 28.40014648 48.05981445 C27.89555908 47.1699585 27.39097168 46.28010254 26.87109375 45.36328125 C26.29166016 44.39326172 25.71222656 43.42324219 25.11523438 42.42382812 C24.56158203 41.39708984 24.00792969 40.37035156 23.4375 39.3125 C22.84904297 38.30509766 22.26058594 37.29769531 21.65429688 36.25976562 C20.56137724 34.38034082 19.48616319 32.49041941 18.43530273 30.5871582 C17.0141387 28.02548525 15.507207 25.51201167 14 23 C13.67 31.91 13.34 40.82 13 50 C8.71 50 4.42 50 0 50 C0 33.5 0 17 0 0 Z " fill="#E76D9A" transform="translate(348,162)"/>
<path d="M0 0 C6.435 -0.1546875 6.435 -0.1546875 13 -0.3125 C14.33675781 -0.35802002 15.67351562 -0.40354004 17.05078125 -0.45043945 C24.28007448 -0.53431224 29.60359106 -0.12432854 35 5 C38.60155641 9.47163538 38.51068252 13.43260457 38.33984375 18.98828125 C37.76142927 24.11423023 36.42938034 27.99692919 32.375 31.33984375 C26.64653237 34.69338418 20.50276884 34.7044196 14 35 C13.67 39.95 13.34 44.9 13 50 C8.71 50 4.42 50 0 50 C0 33.5 0 17 0 0 Z " fill="#EC6F9D" transform="translate(290,221)"/>
<path d="M0 0 C4.18451897 2.18322729 6.6528702 5.1494904 8.734375 9.3125 C8.734375 11.2925 8.734375 13.2725 8.734375 15.3125 C4.444375 15.3125 0.154375 15.3125 -4.265625 15.3125 C-4.925625 13.9925 -5.585625 12.6725 -6.265625 11.3125 C-8.245625 11.3125 -10.225625 11.3125 -12.265625 11.3125 C-11.3328261 15.04369561 -10.50938699 16.15828323 -7.203125 18.25 C-6.27886719 18.73146484 -6.27886719 18.73146484 -5.3359375 19.22265625 C0.83842641 22.47293461 6.67951128 25.80431208 9.734375 32.3125 C10.38993852 37.55700816 9.51261047 40.84747871 6.734375 45.3125 C3.7937693 48.96290708 1.31336637 50.33128756 -3.265625 51.3125 C-15.98114397 52.30808322 -15.98114397 52.30808322 -21.265625 48.3125 C-24.73251003 44.81787989 -26.56926023 41.87473204 -26.578125 36.875 C-26.475 35.699375 -26.371875 34.52375 -26.265625 33.3125 C-21.975625 33.3125 -17.685625 33.3125 -13.265625 33.3125 C-12.605625 34.9625 -11.945625 36.6125 -11.265625 38.3125 C-9.615625 38.3125 -7.965625 38.3125 -6.265625 38.3125 C-5.935625 36.6625 -5.605625 35.0125 -5.265625 33.3125 C-6.80283203 32.55066406 -6.80283203 32.55066406 -8.37109375 31.7734375 C-9.73213461 31.07883734 -11.09279155 30.38348456 -12.453125 29.6875 C-13.12666016 29.35621094 -13.80019531 29.02492187 -14.49414062 28.68359375 C-19.81931667 25.93008809 -23.52401227 22.79572546 -26.265625 17.3125 C-26.50415688 12.22036301 -25.74750954 8.33491676 -22.453125 4.375 C-16.653645 -1.93137542 -8.00117167 -2.42794175 0 0 Z " fill="#E76D9A" transform="translate(274.265625,220.6875)"/>
<path d="M0 0 C4.18451897 2.18322729 6.6528702 5.1494904 8.734375 9.3125 C8.734375 11.2925 8.734375 13.2725 8.734375 15.3125 C4.444375 15.3125 0.154375 15.3125 -4.265625 15.3125 C-4.925625 13.9925 -5.585625 12.6725 -6.265625 11.3125 C-8.245625 11.3125 -10.225625 11.3125 -12.265625 11.3125 C-11.3328261 15.04369561 -10.50938699 16.15828323 -7.203125 18.25 C-6.27886719 18.73146484 -6.27886719 18.73146484 -5.3359375 19.22265625 C0.83842641 22.47293461 6.67951128 25.80431208 9.734375 32.3125 C10.38993852 37.55700816 9.51261047 40.84747871 6.734375 45.3125 C3.7937693 48.96290708 1.31336637 50.33128756 -3.265625 51.3125 C-15.98114397 52.30808322 -15.98114397 52.30808322 -21.265625 48.3125 C-24.73251003 44.81787989 -26.56926023 41.87473204 -26.578125 36.875 C-26.475 35.699375 -26.371875 34.52375 -26.265625 33.3125 C-21.975625 33.3125 -17.685625 33.3125 -13.265625 33.3125 C-12.605625 34.9625 -11.945625 36.6125 -11.265625 38.3125 C-9.615625 38.3125 -7.965625 38.3125 -6.265625 38.3125 C-5.935625 36.6625 -5.605625 35.0125 -5.265625 33.3125 C-6.80283203 32.55066406 -6.80283203 32.55066406 -8.37109375 31.7734375 C-9.73213461 31.07883734 -11.09279155 30.38348456 -12.453125 29.6875 C-13.12666016 29.35621094 -13.80019531 29.02492187 -14.49414062 28.68359375 C-19.81931667 25.93008809 -23.52401227 22.79572546 -26.265625 17.3125 C-26.50415688 12.22036301 -25.74750954 8.33491676 -22.453125 4.375 C-16.653645 -1.93137542 -8.00117167 -2.42794175 0 0 Z " fill="#E76D9A" transform="translate(274.265625,161.6875)"/>
<path d="M0 0 C10.89 0 21.78 0 33 0 C33 3.96 33 7.92 33 12 C29.7 12 26.4 12 23 12 C23 24.54 23 37.08 23 50 C18.71 50 14.42 50 10 50 C10 37.13 10 24.26 10 11 C6.7 11 3.4 11 0 11 C0 7.37 0 3.74 0 0 Z " fill="#EC6F9D" transform="translate(389,221)"/>
<path d="M0 0 C4.13787177 1.74710141 6.79711191 4.0837545 9 8 C9.80199874 13.3061533 9.64544218 17.60981685 7.375 22.5 C4.15213943 25.89248481 1.58325534 27.76347213 -3.17578125 28.19921875 C-6.70284488 28.08658983 -9.09730773 27.73719869 -11.875 25.46875 C-15.15524191 21.74693707 -16.78368833 18.83864918 -17.375 13.8125 C-16.89587495 8.94139534 -15.07075637 5.76275781 -12 2 C-7.95154115 -0.69897256 -4.75041428 -0.53620196 0 0 Z " fill="#0F0A0C" transform="translate(362,232)"/>
<path d="M0 0 C4.91624028 2.36707866 7.18602527 4.86040493 9 10 C9.56138108 15.23955679 8.85632372 18.56777353 6 23 C2.59132439 26.07612189 0.34769509 27.87041393 -4.25 28.3125 C-9.55822727 27.87014773 -12.34415349 25.82143116 -15.875 21.9375 C-17.65654198 17.28569593 -17.88893773 12.8996568 -17 8 C-12.87708145 0.78804462 -8.02090896 -0.95872817 0 0 Z " fill="#100A0D" transform="translate(319,173)"/>
<path d="M0 0 C2.4375 1.5 2.4375 1.5 4 4 C4.7152453 9.00671711 4.81148802 10.85436985 1.875 15 C-1 17 -1 17 -4.0625 17.625 C-7 17 -7 17 -9.375 15 C-11.62175128 10.85215148 -11.59566305 8.69084654 -11 4 C-8.16250305 -0.53999512 -5.10870514 -0.72981502 0 0 Z " fill="#EBEBEB" transform="translate(318,179)"/>
<path d="M0 0 C2.4375 1.5625 2.4375 1.5625 4 4 C4.70685598 8.24113586 4.38881841 11.0097122 1.9375 14.5 C-1 17 -1 17 -4.625 17.125 C-8 16 -8 16 -9.9375 14.4375 C-11.47681792 10.90612359 -11.68303974 7.78776583 -11 4 C-8.16250305 -0.53999512 -5.10870514 -0.72981502 0 0 Z " fill="#EDEDED" transform="translate(362,238)"/>
<path d="M0 0 C0.33 0 0.66 0 1 0 C1.99120153 4.77270327 2.55651466 9.1394316 2 14 C-0.68451125 17.94628347 -3.77214906 20.76916086 -8 23 C-11.4143721 22.86011883 -13.27514346 21.17438957 -15.75 18.9375 C-16.36359375 18.38964844 -16.9771875 17.84179688 -17.609375 17.27734375 C-18.06828125 16.85582031 -18.5271875 16.43429688 -19 16 C-16.31883002 13.8829676 -13.69139242 12.30265912 -10.625 10.8125 C-6.24248403 8.4549089 -3.82773064 5.6827841 -1.09375 1.57421875 C-0.7328125 1.05472656 -0.371875 0.53523437 0 0 Z " fill="#EBEBEB" transform="translate(342,203)"/>
<path d="M0 0 C3.6875 0.25 3.6875 0.25 6.125 1.375 C7.6875 3.25 7.6875 3.25 8.1875 6.25 C7.6875 9.25 7.6875 9.25 6.1875 11.125 C2.56489877 12.75517055 -0.35796658 12.44772667 -4.3125 12.25 C-4.33937279 10.43757948 -4.35883715 8.62504767 -4.375 6.8125 C-4.38660156 5.80316406 -4.39820313 4.79382813 -4.41015625 3.75390625 C-4.26146305 -0.05858741 -3.91303786 0.29532361 0 0 Z " fill="#1E0E14" transform="translate(307.3125,231.75)"/>
<path d="M0 0 C3.933619 1.31120633 4.26549071 2.87187466 6.25 6.4375 C9.09546081 11.29930932 9.09546081 11.29930932 13.9375 13.6875 C14.948125 13.790625 15.95875 13.89375 17 14 C17 16.31 17 18.62 17 21 C16.443125 20.61328125 15.88625 20.2265625 15.3125 19.828125 C10.35597191 16.44562948 5.42483749 13.56446863 0 11 C0 7.37 0 3.74 0 0 Z " fill="#DCDCDC" transform="translate(366,204)"/>
<path d="M0 0 C4.02224515 1.34074838 5.39542862 3.7275898 8 7 C8.66 7.66 9.32 8.32 10 9 C9.39671875 9.01417969 8.7934375 9.02835938 8.171875 9.04296875 C2.71123416 9.31278946 2.71123416 9.31278946 -1.5625 12.5625 C-2.036875 13.366875 -2.51125 14.17125 -3 15 C-5 14 -7 13 -9 12 C-9 11.34 -9 10.68 -9 10 C-7.32278959 8.43041807 -5.53205886 7.0519475 -3.7265625 5.6328125 C-1.87942961 3.88597642 -0.99477333 2.32113778 0 0 Z " fill="#DFDFDF" transform="translate(287,206)"/>
<path d="M0 0 C0.66 0 1.32 0 2 0 C3.65625 1.6796875 3.65625 1.6796875 5.5 3.875 C7.28933258 5.99035504 9.04019124 8.04019124 11 10 C7.37 10 3.74 10 0 10 C0 6.7 0 3.4 0 0 Z " fill="#E6E6E6" transform="translate(397,205)"/>
<path d="M0 0 C0.33 0 0.66 0 1 0 C1 2.97 1 5.94 1 9 C1.66 9 2.32 9 3 9 C3.20625 8.443125 3.4125 7.88625 3.625 7.3125 C5.55000774 4.07498698 8.03850902 2.31768859 11 0 C11.66 0.33 12.32 0.66 13 1 C11.40517782 2.67561054 9.79883156 4.34025934 8.1875 6 C7.29417969 6.928125 6.40085937 7.85625 5.48046875 8.8125 C3 11 3 11 0 11 C0 7.37 0 3.74 0 0 Z " fill="#404040" transform="translate(396,160)"/>
<path d="M0 0 C0.33 0 0.66 0 1 0 C1 3.63 1 7.26 1 11 C-1 10 -1 10 -2 7 C-2.66 6.67 -3.32 6.34 -4 6 C-2.69593116 3.98079663 -1.36176581 1.98075027 0 0 Z " fill="#B3B3B3" transform="translate(342,203)"/>
<path d="M0 0 C0.66 0.33 1.32 0.66 2 1 C-1.3 4.3 -4.6 7.6 -8 11 C-8 7.0234755 -6.61988497 5.9109833 -4 3 C-1.75 1.1875 -1.75 1.1875 0 0 Z " fill="#C65D84" transform="translate(300,164)"/>
<path d="M0 0 C0 0.33 0 0.66 0 1 C-1.7634375 1.061875 -1.7634375 1.061875 -3.5625 1.125 C-8.67389492 1.71722936 -11.50123478 4.42469929 -15 8 C-14.1342843 5.33070993 -13.27808762 3.32258164 -11.4375 1.1875 C-7.71521629 -0.62592027 -4.06856367 -0.23472483 0 0 Z " fill="#333" transform="translate(362,232)"/>
<path d="M0 0 C0.33 0.99 0.66 1.98 1 3 C-0.11878383 4.17262904 -1.24523051 5.33795138 -2.375 6.5 C-3.00148437 7.1496875 -3.62796875 7.799375 -4.2734375 8.46875 C-6 10 -6 10 -8 10 C-6.50104329 6.18447383 -4.2013144 4.46254954 -1 2 C-0.67 1.34 -0.34 0.68 0 0 Z " fill="#333" transform="translate(253,216)"/>
<path d="M0 0 C0.99 0.33 1.98 0.66 3 1 C4.1875 3.5625 4.1875 3.5625 5 6 C3.68 5.67 2.36 5.34 1 5 C1 6.98 1 8.96 1 11 C0.67 11 0.34 11 0 11 C0 7.37 0 3.74 0 0 Z " fill="#333" transform="translate(366,204)"/>
<path d="M0 0 C0.66 0.33 1.32 0.66 2 1 C0.71451591 2.33929505 -0.57858155 3.67128643 -1.875 5 C-2.59429687 5.7425 -3.31359375 6.485 -4.0546875 7.25 C-6 9 -6 9 -8 9 C-6.4169423 4.7257442 -3.49431596 2.73468206 0 0 Z " fill="#333" transform="translate(253,158)"/>
</svg>
