<svg viewBox="0 0 1208 123" fill="none" xmlns="http://www.w3.org/2000/svg">
<path fill-rule="evenodd" clip-rule="evenodd" d="M4 33.0634L24 27.5528C44 22.0423 84 11.0211 124 27.5528C164 44.0845 204 88.169 244 90.9243C284 93.6796 324 55.1056 364 55.1056C404 55.1056 444 93.6796 484 110.211C524 126.743 564 121.232 604 101.945C644 82.6585 684 49.5951 724 49.5951C764 49.5951 804 82.6585 844 88.169C884 93.6796 924 71.6373 964 60.6162C1004 49.5951 1044 49.5951 1084 60.6162C1124 71.6373 1164 93.6796 1184 104.701L1204 115.722V0H1184C1164 0 1124 0 1084 0C1044 0 1004 0 964 0C924 0 884 0 844 0C804 0 764 0 724 0C684 0 644 0 604 0C564 0 524 0 484 0C444 0 404 0 364 0C324 0 284 0 244 0C204 0 164 0 124 0C84 0 44 0 24 0H4V33.0634Z" fill="#FF0096"/>
<g filter="url(#filter0_d_5_42)">
<path fill-rule="evenodd" clip-rule="evenodd" d="M4 28.0634L24 22.5528C44 17.0423 84 6.02113 124 22.5528C164 39.0845 204 83.169 244 85.9243C284 88.6796 324 50.1056 364 50.1056C404 50.1056 444 88.6796 484 105.211C524 121.743 564 116.232 604 96.9454C644 77.6585 684 44.5951 724 44.5951C764 44.5951 804 77.6585 844 83.169C884 88.6796 924 66.6373 964 55.6162C1004 44.5951 1044 44.5951 1084 55.6162C1124 66.6373 1164 88.6796 1184 99.7007L1204 110.722V0H1184C1164 0 1124 0 1084 0C1044 0 1004 0 964 0C924 0 884 0 844 0C804 0 764 0 724 0C684 0 644 0 604 0C564 0 524 0 484 0C444 0 404 0 364 0C324 0 284 0 244 0C204 0 164 0 124 0C84 0 44 0 24 0H4V28.0634Z" fill="#8A2BE2"/>
<path fill-rule="evenodd" clip-rule="evenodd" d="M4 28.0634L24 22.5528C44 17.0423 84 6.02113 124 22.5528C164 39.0845 204 83.169 244 85.9243C284 88.6796 324 50.1056 364 50.1056C404 50.1056 444 88.6796 484 105.211C524 121.743 564 116.232 604 96.9454C644 77.6585 684 44.5951 724 44.5951C764 44.5951 804 77.6585 844 83.169C884 88.6796 924 66.6373 964 55.6162C1004 44.5951 1044 44.5951 1084 55.6162C1124 66.6373 1164 88.6796 1184 99.7007L1204 110.722V0H1184C1164 0 1124 0 1084 0C1044 0 1004 0 964 0C924 0 884 0 844 0C804 0 764 0 724 0C684 0 644 0 604 0C564 0 524 0 484 0C444 0 404 0 364 0C324 0 284 0 244 0C204 0 164 0 124 0C84 0 44 0 24 0H4V28.0634Z" stroke="black"/>
</g>
<defs>
<filter id="filter0_d_5_42" x="0" y="0" width="1208" height="123" filterUnits="userSpaceOnUse" color-interpolation-filters="sRGB">
<feFlood flood-opacity="0" result="BackgroundImageFix"/>
<feColorMatrix in="SourceAlpha" type="matrix" values="0 0 0 0 0 0 0 0 0 0 0 0 0 0 0 0 0 0 127 0" result="hardAlpha"/>
<feOffset dy="4"/>
<feGaussianBlur stdDeviation="2"/>
<feComposite in2="hardAlpha" operator="out"/>
<feColorMatrix type="matrix" values="0 0 0 0 0 0 0 0 0 0 0 0 0 0 0 0 0 0 0.25 0"/>
<feBlend mode="normal" in2="BackgroundImageFix" result="effect1_dropShadow_5_42"/>
<feBlend mode="normal" in="SourceGraphic" in2="effect1_dropShadow_5_42" result="shape"/>
</filter>
</defs>
</svg>
