<svg  viewBox="0 0 1201 262" fill="none" xmlns="http://www.w3.org/2000/svg" preserveAspectRatio="none">
<path width="100%" height="262" fill-rule="evenodd" clip-rule="evenodd" d="M1200.01 108L1178.01 102C1156.01 96 1111.01 84 1067.01 72C1022.01 60 978.012 48 933.012 66C889.012 84 844.012 132 800.012 132C756.012 132 711.012 84 667.012 96C622.012 108 578.012 180 533.012 204C489.012 228 444.012 204 400.012 174C356.012 144 311.012 108 267.012 132C222.012 156 178.012 240 133.012 258C89.0125 276 44.0125 228 22.0125 204L0.0124512 180V0H22.0125C44.0125 0 89.0125 0 133.012 0C178.012 0 222.012 0 267.012 0C311.012 0 356.012 0 400.012 0C444.012 0 489.012 0 533.012 0C578.012 0 622.012 0 667.012 0C711.012 0 756.012 0 800.012 0C844.012 0 889.012 0 933.012 0C978.012 0 1022.01 0 1067.01 0C1111.01 0 1156.01 0 1178.01 0H1200.01V108Z" fill="#8A2BE2"/>


</svg>
